<svg width="180" height="134" viewBox="0 0 180 134" fill="none" xmlns="http://www.w3.org/2000/svg">
<path d="M91.5159 20.1871C92.5305 20.2478 93.539 20.387 94.5321 20.6035C96.2314 21.0878 97.9307 21.1727 98.6104 19.4139C98.9758 18.5133 98.2451 17.1709 97.9137 15.5905C98.4235 15.5905 99.4516 15.2167 100.208 15.531C103.003 16.6951 104.006 15.531 104.014 12.6677C106.436 12.4808 108.441 11.8181 108.755 8.92076C108.806 8.41946 110.081 7.71425 110.82 7.68027C116.351 7.38289 116.767 7.00904 116.912 2.07257L119.665 3.58495L119.962 0.101383C121.814 -0.748268 123.004 4.10324 125.493 1.29089C127.745 3.64443 129.589 3.48299 135.162 0.364776C134.602 1.29089 134.194 1.96212 133.735 2.70131C136.08 4.681 136.998 1.55428 139.275 1.2654C134.619 5.83652 137.388 9.44754 139.555 13.3644C140.243 14.5964 139.751 16.6696 139.368 18.2499C138.935 20.0172 137.822 21.6485 137.363 23.3903C136.649 26.1092 136.25 28.9045 135.553 32.5071L133.004 29.6267C131.436 30.9846 129.949 32.4344 128.552 33.9685C128.042 34.5802 128.263 35.7952 128.204 36.2455L139.428 37.0952L139.513 36.5684C139.187 36.4661 138.872 36.3353 138.569 36.1775C138.248 35.9208 137.949 35.6365 137.677 35.3279L140.371 33.7051C141.518 37.1037 141.22 41.5728 146.08 42.3715C146.556 42.448 147.117 42.0062 147.618 41.8107C150.787 44.1898 153.812 47.1805 158.069 48.8203C156.896 50.3327 155.418 51.3693 157.729 52.8477C158.426 53.281 158.188 55.2182 158.383 56.4757L159.683 57.0959C160.062 56.4607 160.375 55.7889 160.618 55.0908C161.527 51.3948 164.543 49.4321 167.058 47.0361C168.418 45.7446 169.437 45.6511 170.78 47.1125C171.961 48.404 173.771 49.1687 174.765 50.5111C176.676 53.1621 179.455 56.0424 179.574 58.9142C179.735 62.7716 177.246 66.4251 173.541 68.6002C170.389 70.4439 167.432 69.8577 164.781 67.5891C162.368 65.5245 160.066 63.3409 157.585 61.0468C158.749 64.0716 155.885 65.1251 154.28 66.9944C153.906 67.4362 153.931 68.2179 153.43 68.2943L148.808 71.1152C148.281 71.2086 147.253 71.421 146.208 71.54C145.163 71.6589 143.863 72.0243 142.852 71.7269C141.009 71.154 139.234 70.3819 137.558 69.4244C136.615 68.9061 135.987 67.8355 135.077 67.2408C132.8 65.7539 131.849 63.3749 130.583 61.1743C130.387 60.8344 129.597 60.8259 129.869 60.9109C129.019 58.9312 128.45 57.5123 127.821 56.0084L125.561 57.1384L124.899 55.2607L119.716 52.3889L115.714 55.626H118.322C118.322 58.3364 118.322 60.9449 118.322 63.5533C118.41 64.2584 118.361 64.9738 118.178 65.6604C117.252 67.6571 116.241 69.6198 115.128 71.5145C114.015 73.4092 113.139 75.7628 110.463 76.2301C110.285 76.2301 110.004 76.332 109.97 76.451C108.857 79.7136 105.365 79.4162 103.122 80.9796C102.638 81.3195 101.627 80.8862 100.726 80.8012L99.1967 86.7487C97.217 85.3978 94.5831 85.4403 94.5406 82.5005C93.7438 82.3796 92.9412 82.3002 92.1361 82.2626C92.0257 82.0162 91.6603 81.141 91.2015 80.0535C88.4061 81.6508 85.3559 82.4495 84.8121 85.1514L77.794 90.2493L75.8568 89.7565C75.0071 90.963 74.4379 92.3989 73.3843 93.2486C70.7504 95.3727 72.0844 97.0295 73.4523 99.1112C74.5653 100.81 75.0666 102.867 75.8398 104.761L74.5823 105.271L71.5831 98.7883C69.8838 97.8792 68.4733 97.089 67.0544 96.4433C66.3152 96.1034 65.1852 95.5001 64.7604 95.789C61.6676 97.8877 57.3089 97.9132 55.2358 101.737C54.5622 102.953 53.7021 104.057 52.6868 105.008C51.1066 106.397 50.1034 108.328 49.8745 110.42C49.1948 115.45 47.9373 120.403 46.8327 125.365C46.5804 126.132 46.1855 126.844 45.6687 127.464C45.5923 127.574 44.7426 127.362 44.7341 127.26C44.5592 126.402 44.5592 125.518 44.7341 124.66C46.3824 120.115 47.9883 115.603 46.9262 110.615C46.882 110.256 46.9178 109.892 47.0309 109.548C47.144 109.204 47.3316 108.89 47.5804 108.627C50.2908 106.129 50.3163 102.612 51.1745 99.4255C51.3189 98.8733 50.6137 98.0916 49.917 97.5648C50.9026 93.1296 46.7308 92.7048 44.5302 90.6061L41.5054 92.7048C41.8028 90.7506 44.2838 89.1023 41.8453 87.4624C40.3329 86.4429 38.7356 85.5507 36.8154 84.3782C37.2742 82.8318 36.2631 81.8718 33.8331 82.1691C33.3063 78.4307 32.3377 74.9896 28.7352 73.6726C29.7678 72.6127 30.7193 71.4767 31.5815 70.274C31.7514 69.9936 30.8593 69.059 30.1286 67.912C30.5959 64.3265 30.0691 62.3553 26.5346 62.5422C28.4038 60.6475 28.2934 59.5514 25.464 57.045C24.9797 59.5259 24.5634 61.6416 24.1726 63.6552H11.3768V63.4938L19.7799 62.1259C22.8811 61.6076 24.283 58.6423 23.7137 55.5836C23.3144 53.4594 22.7282 52.0065 20.5955 51.8961C18.9248 51.8243 17.2556 52.0694 15.6761 52.6183C10.4677 54.462 5.33581 56.4927 0 58.175C1.29947 57.6101 2.56988 56.9806 3.80644 56.2888C6.74623 54.428 9.75399 52.6183 12.4644 50.4857C14.0362 49.2537 17.2054 48.6589 18.8198 49.9249C21.3687 51.9046 22.5327 51.4712 23.3569 48.489C23.5353 47.8602 24.5124 47.3589 25.2176 46.9766C26.9169 46.0675 28.7267 45.3963 30.3155 44.3512C31.0207 43.8924 31.2756 42.7538 31.8874 41.6493L26.3562 41.1565V40.5447H30.5109C29.7025 39.1524 28.8145 37.8077 27.8515 36.5174C26.764 35.2429 26.9084 34.3848 28.3698 33.6966C30.6214 32.626 31.522 30.9777 30.9188 28.4712C30.7998 27.9784 31.4201 27.2987 31.709 26.7039C31.9299 26.2366 32.3377 25.7948 32.3717 25.319C32.3036 24.1585 32.4951 22.9975 32.9325 21.9204C32.4057 21.1642 31.8789 20.408 30.8678 18.9806L34.3939 19.5839C34.7422 17.5957 35.6768 15.531 32.754 14.5964C32.5922 14.5089 32.466 14.3677 32.3972 14.1971C31.505 12.4298 30.6129 10.654 29.5423 8.50443C31.3011 9.49002 33.1959 10.2037 34.6912 11.4697C36.552 12.9906 38.3107 12.0135 39.8826 11.4697C40.6558 11.1893 40.9192 9.48152 41.31 8.63187C42.3891 8.98023 43.7995 9.82988 45.1759 9.7789C47.334 9.69394 49.4242 9.12467 51.5908 10.0508C51.9137 10.1867 52.7888 9.24362 53.2901 8.69984C54.0888 7.85019 54.794 6.93257 55.5417 6.04044C56.2044 7.23845 56.9266 8.41097 57.4873 9.65146C57.5976 10.2639 57.5976 10.8912 57.4873 11.5037C60.1468 11.6311 59.6285 13.6278 59.586 14.7239C61.7356 17.0434 64.327 18.7427 65.0577 21.0368C65.5166 22.4387 65.8224 24.2145 66.842 24.9367C68.193 25.8968 70.1302 26.1687 71.8549 26.3386C72.2288 26.3386 72.9255 24.8007 73.2059 23.8831C73.7582 22.0394 75.1006 21.9544 78.3038 23.9511L74.6418 26.1262C74.9222 26.8059 75.2196 27.4941 75.4065 27.9274C74.5648 28.0806 73.753 28.3674 73.002 28.7771C72.8066 28.947 73.3333 30.0091 73.5288 30.6548C74.268 30.3319 75.2281 30.196 75.7124 29.6522C77.1483 28.0719 78.4057 26.3301 79.7822 24.5543C80.7083 25.9987 81.0312 28.947 83.5291 28.2078C84.3788 30.7568 85.1095 33.0084 85.8997 35.2854C86.1376 35.9651 86.8513 36.6618 86.7493 37.2481C86.231 40.2983 88.8819 40.0095 90.4113 40.8336C90.7002 40.9866 91.5498 40.6212 91.7792 40.2644C92.9348 38.4206 93.7079 36.2455 95.1778 34.7161C95.917 33.943 97.8288 34.2998 99.8509 34.0704C99.6385 33.2208 99.715 31.326 98.9078 30.7993C97.9307 30.1535 96.2059 30.6463 94.3962 30.6463C95.9085 29.7202 97.6588 29.2189 98.1176 28.1653C98.4405 27.4092 97.1151 25.8373 96.3419 24.7667C95.461 23.5882 94.4894 22.4803 93.4361 21.4531C92.8415 20.934 92.2049 20.4651 91.5329 20.0512L91.5159 20.1871Z" fill="white"/>
<path d="M140.457 80.4439C142.657 80.4439 144.799 80.3844 146.94 80.4439C149.659 80.5458 155.054 85.015 154.468 87.4875C153.924 89.773 151.706 91.8717 149.777 93.5285C148.299 94.803 146.608 94.0043 144.68 93.0102C140.253 90.7586 139.148 87.9803 140.95 83.5196C141.281 82.619 140.601 81.285 140.457 80.4439Z" fill="white"/>
<path d="M31.6675 52.9832C30.6564 55.1498 29.3055 56.6792 26.5696 56.8661C25.0912 56.9681 23.6638 57.9367 22.2109 58.5654C21.2678 58.9478 20.3332 59.3641 19.3901 59.7719C19.2796 59.5255 19.1692 59.2876 19.0672 59.0497L31.1832 52.329L31.6675 52.9832Z" fill="white"/>
<path d="M93.4286 112.085C92.8112 118.129 92.2023 124.184 91.6019 130.251L90.4973 130.149C91.1261 124.122 91.7576 118.098 92.392 112.076L93.4286 112.085Z" fill="white"/>
<path d="M111.322 124.549C111.161 127.149 111.093 129.757 110.77 132.332C110.694 132.91 109.734 133.377 109.19 133.895C108.926 133.19 108.34 132.391 108.459 131.797C109.088 129.307 109.937 126.869 110.702 124.422L111.322 124.549Z" fill="white"/>
<path d="M48.3208 0.916626C49.3319 2.6924 50.1985 3.76295 50.4874 4.96946C50.5808 5.3603 49.1704 6.11649 48.4397 6.66876C47.6801 5.72838 47.054 4.68765 46.579 3.57603C46.4091 3.10023 47.3777 2.27607 48.3208 0.916626Z" fill="white"/>
<path d="M102.953 29.0826C98.8324 29.0826 95.5867 26.9245 92.29 24.9023L92.7149 23.9592L102.911 29.1506L102.953 29.0826Z" fill="white"/>
<path d="M71.7456 4.07723L70.1907 14.273L69.2646 14.1286L71.1763 3.98376L71.7456 4.07723Z" fill="white"/>
<path d="M89.6476 28.9382L93.3521 27.7742C93.4541 28.267 93.7515 29.1336 93.641 29.1931C92.5365 29.7539 91.3639 30.1702 90.2424 30.6375L89.6476 28.9382Z" fill="white"/>
<path d="M22.8312 78.668L16.4928 83.2051C16.3653 83.0267 16.2294 82.8568 16.1019 82.6869L22.2534 77.9033L22.8312 78.668Z" fill="white"/>
<path d="M34.429 39.4822L38.0655 40.7991C36.927 41.6488 35.9839 42.6259 35.7375 42.4984C34.958 41.8831 34.2737 41.1558 33.7068 40.3403L34.429 39.4822Z" fill="white"/>
</svg>
